<svg width="367" height="389" xmlns="http://www.w3.org/2000/svg" xmlns:xlink="http://www.w3.org/1999/xlink" xml:space="preserve" overflow="hidden"><g transform="translate(-1012 -417)"><g><path d="M1015 491.814C1015 452.705 1046.7 421 1085.81 421L1307.19 421C1346.3 421 1378 452.705 1378 491.814L1378 732.186C1378 771.295 1346.3 803 1307.19 803L1085.81 803C1046.7 803 1015 771.295 1015 732.186Z" fill="#000000" fill-rule="evenodd" fill-opacity="1"/><path d="M1221 475.334C1221 468.522 1226.52 463 1233.33 463L1283.67 463C1290.48 463 1296 468.522 1296 475.334L1296 524.666C1296 531.478 1290.48 537 1283.67 537L1233.33 537C1226.52 537 1221 531.478 1221 524.666Z" fill="#FFFFFF" fill-rule="evenodd" fill-opacity="1"/><path d="M1104 500C1104 479.565 1120.57 463 1141 463L1142 463C1162.43 463 1179 479.565 1179 500L1179 500C1179 520.435 1162.43 537 1142 537L1141 537C1120.57 537 1104 520.434 1104 500Z" fill="#FFFFFF" fill-rule="evenodd" fill-opacity="1"/><path d="M1132 475.334C1132 468.522 1137.52 463 1144.33 463L1194.67 463C1201.48 463 1207 468.522 1207 475.334L1207 524.666C1207 531.478 1201.48 537 1194.67 537L1144.33 537C1137.52 537 1132 531.478 1132 524.666Z" fill="#FFFFFF" fill-rule="evenodd" fill-opacity="1"/><path d="M1104 702.167C1104 695.447 1109.45 690 1116.17 690L1166.83 690C1173.55 690 1179 695.447 1179 702.167L1179 750.833C1179 757.553 1173.55 763 1166.83 763L1116.17 763C1109.45 763 1104 757.553 1104 750.833Z" fill="#FFFFFF" fill-rule="evenodd" fill-opacity="1"/><path d="M1219 725C1219 704.565 1235.57 688 1256 688L1257 688C1277.43 688 1294 704.565 1294 725L1294 725C1294 745.434 1277.43 762 1257 762L1256 762C1235.57 762 1219 745.434 1219 725Z" fill="#FFFFFF" fill-rule="evenodd" fill-opacity="1"/><path d="M1193 700.333C1193 693.522 1198.52 688 1205.33 688L1254.67 688C1261.48 688 1267 693.522 1267 700.333L1267 749.667C1267 756.478 1261.48 762 1254.67 762L1205.33 762C1198.52 762 1193 756.478 1193 749.667Z" fill="#FFFFFF" fill-rule="evenodd" fill-opacity="1"/><path d="M1104 584.5C1104 564.342 1120.34 548 1140.5 548L1142.5 548C1162.66 548 1179 564.342 1179 584.5L1179 584.5C1179 604.659 1162.66 621 1142.5 621L1140.5 621C1120.34 621 1104 604.659 1104 584.5Z" fill="#FFFFFF" fill-rule="evenodd" fill-opacity="1"/><path d="M1219 641.5C1219 621.342 1235.34 605 1255.5 605L1257.5 605C1277.66 605 1294 621.342 1294 641.5L1294 641.5C1294 661.659 1277.66 678 1257.5 678L1255.5 678C1235.34 678 1219 661.659 1219 641.5Z" fill="#FFFFFF" fill-rule="evenodd" fill-opacity="1"/><path d="M1144.59 558.951C1147.6 552.89 1154.94 550.41 1161 553.412L1268.54 606.665C1274.6 609.666 1277.08 617.013 1274.08 623.074L1252.34 666.97C1249.34 673.031 1241.99 675.511 1235.93 672.509L1128.4 619.256C1122.33 616.255 1119.85 608.908 1122.86 602.847Z" fill="#FFFFFF" fill-rule="evenodd" fill-opacity="1"/></g></g></svg>